<?xml version="1.0" encoding="utf-8"?>
<!-- Generator: Adobe Illustrator 19.0.0, SVG Export Plug-In . SVG Version: 6.00 Build 0)  -->
<svg version="1.1" id="Layer_1" xmlns="http://www.w3.org/2000/svg" xmlns:xlink="http://www.w3.org/1999/xlink" x="0px" y="0px"
	 viewBox="-41 118.6 528.4 556.4" style="enable-background:new -41 118.6 528.4 556.4;" xml:space="preserve">
<g id="Logo">
	<path id="XMLID_7_" d="M450.5,119.2l-460.4,97c-2.1,1-4.1,2.1-6,3.4c-15.2,9.8-25,26.8-25,45.8V485c0,23,14.4,43.2,35.5,51h-0.1
		l163.2,34.7l95.5,100.6c7.5,7.9,20.9,2.6,20.9-8.4v-67.4v-0.6l0,0l176.4,36.7c19,4,36.9-10.6,36.9-30V149.2
		C487.4,129.8,469.6,115.3,450.5,119.2z M146,332.4c-1.5,0.2-3.8,1-6.3,3.5c-2.2,2.2-3.1,4.3-3.4,5.7v3.5v12.7v119.5H85.5V328.7
		c0-26.3,21.3-47.6,47.6-47.6h73.4v51.3H146z M352.9,353.1v0.7c0,25.9-21,47-47,47H285h-51.7h-24.5v15.9v4v5.8H353v50.8H161.7V367.4
		c0.3-1.4,1.1-3.6,3.5-6c2.9-2.9,5.6-3.4,6.9-3.5c0.5,0,0.8,0,0.8,0l0,0l0,0h116.4c7,0,12.7-5.7,12.7-12.7s-5.7-12.7-12.7-12.7
		h-57.5v-51.3h73.4c26.3,0,47.6,21.3,47.6,47.6v24.3H352.9z"/>
</g>
</svg>
